<svg width="188" height="27" viewBox="0 0 188 27" fill="none" xmlns="http://www.w3.org/2000/svg">
<path d="M28.3538 15.2741H17.7881C17.511 16.8297 16.063 17.8214 14.0339 17.8214C11.4595 17.8214 9.98458 16.4386 9.98458 14.0278C9.98458 11.617 11.5578 10.1706 14.1054 10.1706C16.0987 10.1706 17.52 11.1894 17.7971 12.7815H28.3627C28.1214 7.99631 25.7883 4.68493 21.4083 2.95645C19.2541 2.1286 16.8585 1.71924 14.1054 1.71924C8.47394 1.71924 4.08502 3.76613 1.74307 7.46871C0.572092 9.38822 0 11.5533 0 14.0915C0 22.2426 4.54983 26.1999 13.9087 26.1999C19.7815 26.1999 23.9737 24.5806 26.3872 21.3875C27.585 19.7591 28.2286 17.7577 28.3627 15.2741H28.3538Z" fill="white"/>
<path d="M41.7804 14.4003C43.6843 14.4003 44.0419 15.492 44.0419 17.5025V25.5808H53.4812V14.3002C53.4812 9.05111 51.0231 6.39476 46.1693 6.39476C43.5771 6.39476 41.3781 7.60469 39.9748 9.79713L39.4563 10.6158V0.708984H30.0527V25.5899H39.5189V17.7481C39.5189 15.5921 39.8764 14.4185 41.7804 14.4185V14.4003Z" fill="white"/>
<path d="M60.6938 0C57.0021 0 55.4199 0.991613 55.4199 3.31141C55.4199 5.63121 56.7518 6.55914 60.6938 6.55914C64.6358 6.55914 65.9676 5.62211 65.9676 3.31141C65.9676 1.00071 64.3944 0 60.6938 0Z" fill="white"/>
<path d="M65.601 25.5724V7.23242C64.5284 7.92381 62.9015 8.26042 60.6579 8.26042C58.4143 8.26042 56.8232 7.92382 55.7773 7.24153V25.5724H65.601Z" fill="white"/>
<path d="M74.2991 24.6077C75.5505 25.2445 77.3919 25.572 79.7607 25.572H85.7496V18.1487H82.4244C80.3417 18.1487 79.7696 17.6211 79.7696 15.7107V14.4643H85.7764V6.81353H79.7696V1.3916H72.8778C72.7706 2.64702 72.6275 3.62952 72.261 4.57564C71.823 5.72189 71.2331 6.31321 70.0889 6.78626C69.3291 7.07737 68.614 7.21379 67.3447 7.31386V14.4552H70.9202V16.2656C70.9202 20.9325 71.9303 23.4251 74.2991 24.5986V24.6077Z" fill="white"/>
<path d="M116.007 15.2741H105.441C105.164 16.8297 103.716 17.8214 101.687 17.8214C99.1128 17.8214 97.6379 16.4386 97.6379 14.0278C97.6379 11.617 99.2111 10.1706 101.759 10.1706C103.752 10.1706 105.173 11.1894 105.45 12.7815H116.016C115.784 7.99631 113.442 4.68493 109.062 2.95645C106.907 2.1286 104.512 1.71924 101.759 1.71924C96.1273 1.71924 91.7383 3.76613 89.3964 7.46871C88.2254 9.38822 87.6533 11.5533 87.6533 14.0915C87.6533 22.2426 92.2031 26.1999 101.562 26.1999C107.435 26.1999 111.627 24.5806 114.032 21.3875C115.229 19.7682 115.873 17.7577 116.007 15.2741Z" fill="white"/>
<path d="M129.434 14.4003C131.338 14.4003 131.704 15.492 131.704 17.5025V25.5808H141.143V14.3002C141.143 9.05111 138.685 6.39476 133.823 6.39476C131.23 6.39476 129.031 7.60469 127.628 9.79713L127.11 10.6158V0.708984H117.706V25.5899H127.172V17.7481C127.172 15.5921 127.53 14.4185 129.443 14.4185L129.434 14.4003Z" fill="white"/>
<path d="M158.645 21.9881L159.78 25.5633H168.093V14.9742C168.093 8.9427 164.607 6.36816 156.428 6.36816C151.083 6.36816 144.602 7.62361 143.753 13.555H153.487C153.63 13.0456 154.238 12.2359 156.652 12.2359C158.046 12.2359 158.851 12.4087 158.851 13.282C158.851 14.0098 158.127 14.2464 156.589 14.4647C155.767 14.5648 154.569 14.7013 152.942 14.865C150.6 15.1288 149.009 15.3562 147.767 15.7474C147.078 15.9203 146.444 16.2023 145.925 16.457C144.021 17.3577 143.101 18.8951 143.101 21.1512C143.101 24.5809 145.291 26.182 149.992 26.182C154.033 26.182 156.911 24.9175 158.323 22.5249L158.645 21.979V21.9881ZM156.464 20.5053C155.785 20.7873 155.096 20.9238 154.408 20.9238C153.38 20.9238 153.023 20.3597 153.023 19.8776C153.023 19.4591 153.219 19.1225 153.613 18.8678C153.881 18.6949 154.337 18.4857 155.686 18.2037C156.982 17.858 157.885 17.5941 158.395 17.203L158.851 16.8482V17.7306C158.851 18.8496 157.957 19.8867 156.464 20.5144V20.5053Z" fill="white"/>
<path d="M176.523 24.6077C177.774 25.2445 179.616 25.572 181.984 25.572H187.973V18.1487H184.648C182.565 18.1487 181.993 17.6211 181.993 15.7107V14.4643H188V6.81353H181.993V1.3916H175.101C174.994 2.64702 174.851 3.62952 174.485 4.57564C174.047 5.72189 173.457 6.31321 172.313 6.78626C171.553 7.07737 170.838 7.21379 169.568 7.31386V14.4552H173.144V16.2656C173.144 20.9325 174.154 23.4251 176.523 24.5986V24.6077Z" fill="white"/>
</svg>
